Coordinates
version=1
nRows=14
nColumns=24
inDegrees=yes

Units are S.I. units (second, meters, Newtons, ...)
Angles are in degrees.

endheader
time	pelvis_tilt	pelvis_list	pelvis_rotation	pelvis_tx	pelvis_ty	pelvis_tz	hip_flexion_r	hip_adduction_r	hip_rotation_r	knee_angle_r	ankle_angle_r	subtalar_angle_r	mtp_angle_r	hip_flexion_l	hip_adduction_l	hip_rotation_l	knee_angle_l	ankle_angle_l	subtalar_angle_l	mtp_angle_l	lumbar_extension	lumbar_bending	lumbar_rotation
      1.38300000	      1.74643640	      6.29326069	     -7.35652935	      0.21626516	      1.01971547	      0.25839328	     12.04658263	     -7.45141416	      0.96133985	    -64.69883186	     -0.32523527	    -14.93080041	      5.47495869	      5.23581318	     10.69476841	     -2.92553966	     -8.06490713	     -1.55309775	    -14.91786186	      6.34568688	     -5.17991976	     -8.37782617	      8.22930088
      1.38716667	      1.72235099	      6.16333202	     -7.20418822	      0.22133726	      1.02039110	      0.25815816	     12.55847046	     -7.25409880	      0.88456564	    -64.28272754	     -0.08891373	    -14.90007102	      5.39211241	      4.76926065	     10.61717062	     -2.76229800	     -7.78717646	     -1.42343481	    -14.82022259	      6.29795665	     -5.21022496	     -8.23826008	      7.88260826
      1.39133333	      1.69404152	      6.02663442	     -7.04934513	      0.22637675	      1.02102104	      0.25793049	     13.06519147	     -7.04559347	      0.81131588	    -63.81981019	      0.14536569	    -14.87297059	      5.32514619	      4.31172880	     10.52749888	     -2.60539248	     -7.51562525	     -1.30008108	    -14.70929547	      6.25708528	     -5.25105970	     -8.08362900	      7.63930608
      1.39550000	      1.65997971	      5.89290187	     -6.89711135	      0.23141632	      1.02160867	      0.25772107	     13.56789514	     -6.83929970	      0.73955624	    -63.31098914	      0.39746677	    -14.86033204	      5.29946207	      3.86244106	     10.43523080	     -2.47240652	     -7.24420773	     -1.20762485	    -14.59517955	      6.24046994	     -5.27876533	     -7.93192588	      7.49722833
      1.39966667	      1.64431791	      5.75875344	     -6.72544589	      0.23643588	      1.02219233	      0.25748173	     14.03384146	     -6.64522891	      0.63991672	    -62.74888873	      0.61498828	    -14.81826627	      5.26913494	      3.39301854	     10.34419363	     -2.31263687	     -6.97115769	     -1.08815679	    -14.47000117	      6.22074363	     -5.33575032	     -7.77748731	      7.25564908
      1.40383333	      1.64034042	      5.64718691	     -6.55516557	      0.24144082	      1.02273539	      0.25726762	     14.48408098	     -6.47802289	      0.54486531	    -62.15293072	      0.80244107	    -14.79250049	      5.18911509	      2.91146434	     10.27484810	     -2.14931144	     -6.68944152	     -0.96462024	    -14.34185033	      6.16549145	     -5.40975934	     -7.67138877	      6.79463455
      1.40800000	      1.59615574	      5.51841032	     -6.38193059	      0.24645677	      1.02321089	      0.25704370	     14.95987799	     -6.28923764	      0.44456093	    -61.50374647	      0.99363906	    -14.76569341	      5.16657255	      2.47635924	     10.17857926	     -2.00396267	     -6.41680399	     -0.85746150	    -14.21563198	      6.15027978	     -5.42757993	     -7.51511267	      6.66654499
      1.41216667	      1.58878967	      5.40477230	     -6.19248644	      0.25144836	      1.02367726	      0.25682242	     15.38328572	     -6.12945333	      0.32344905	    -60.81422807	      1.14124635	    -14.74243083	      5.10626727	      2.00535656	     10.09958517	     -1.83188868	     -6.14849887	     -0.70810375	    -14.07780991	      6.10872215	     -5.49606978	     -7.40129677	      6.24988668
      1.41633333	      1.56771658	      5.29184591	     -6.00570401	      0.25643835	      1.02408844	      0.25660529	     15.81065742	     -5.97013302	      0.20539702	    -60.08396069	      1.30013224	    -14.72289742	      5.05539840	      1.55207940	     10.01605157	     -1.67816313	     -5.88066920	     -0.58761632	    -13.94610866	      6.07386057	     -5.54220852	     -7.27669074	      5.97869478
      1.42050000	      1.55120404	      5.19185859	     -5.81595026	      0.26141470	      1.02445769	      0.25639532	     16.22496580	     -5.82894416	      0.08496298	    -59.31987071	      1.44974193	    -14.71320426	      5.00364094	      1.09692353	      9.94310377	     -1.52418585	     -5.61231061	     -0.47250933	    -13.80813862	      6.03861091	     -5.59793918	     -7.16930493	      5.67982926
      1.42466667	      1.53283779	      5.09085924	     -5.62306412	      0.26637878	      1.02478498	      0.25619144	     16.62753602	     -5.68998866	     -0.04063721	    -58.51393682	      1.58418764	    -14.70449957	      4.95307362	      0.64657305	      9.86552989	     -1.36790026	     -5.34648019	     -0.35502775	    -13.67111776	      6.00446716	     -5.65232664	     -7.06050993	      5.38507130
      1.42883333	      1.48607910	      4.98103731	     -5.42112665	      0.27135755	      1.02505323	      0.25599729	     17.03883000	     -5.53824835	     -0.17045261	    -57.65756110	      1.71934021	    -14.69314502	      4.92643771	      0.23510787	      9.76992935	     -1.22318221	     -5.10055115	     -0.26191130	    -13.53547687	      5.98812112	     -5.66862505	     -6.94237466	      5.19849520
      1.43300000	      1.50080545	      4.90115191	     -5.22662651	      0.27630152	      1.02533621	      0.25580900	     17.38532118	     -5.43415966	     -0.29931970	    -56.78232702	      1.80686157	    -14.69928010	      4.87329024	     -0.24948810	      9.71143444	     -1.06300543	     -4.82737417	     -0.12350520	    -13.38709980	      5.95574427	     -5.76558678	     -6.86028213	      4.78443587
      1.43716667	      1.45000024	      4.82049999	     -5.02624359	      0.28125911	      1.02548470	      0.25562506	     17.78906312	     -5.32476343	     -0.43063743	    -55.87149120	      1.89632125	    -14.68386139	      4.82737328	     -0.65174539	      9.64151421	     -0.91480110	     -4.57825284	      0.00104633	    -13.25472229	      5.92842144	     -5.77477943	     -6.77176981	      4.50030317
